<svg width="169" height="32" viewBox="0 0 169 32" fill="none" xmlns="http://www.w3.org/2000/svg">
<g clip-path="url(#clip0_25_43)">
<path d="M26.6667 12V23.4311L16.8889 27.9467V14.7911L24.0711 11.4756C23.4231 11.1945 22.8233 10.8136 22.2933 10.3467L16 13.2444L6.56888 8.88889L16 4.53333L20.0978 6.42667C20.033 6.06582 20.0003 5.69995 20 5.33333C20.0021 5.03603 20.0229 4.73915 20.0622 4.44445L16.3733 2.74667C16.2563 2.69252 16.1289 2.66447 16 2.66447C15.8711 2.66447 15.7437 2.69252 15.6267 2.74667L4.0711 8.08C3.91681 8.15141 3.78623 8.26556 3.69485 8.40893C3.60347 8.55231 3.55512 8.71887 3.55554 8.88889V24C3.55512 24.17 3.60347 24.3366 3.69485 24.48C3.78623 24.6233 3.91681 24.7375 4.0711 24.8089L15.6267 30.1422C15.7437 30.1964 15.8711 30.2244 16 30.2244C16.1289 30.2244 16.2563 30.1964 16.3733 30.1422L27.9289 24.8089C28.0832 24.7375 28.2137 24.6233 28.3051 24.48C28.3965 24.3366 28.4449 24.17 28.4444 24V11.7511C27.866 11.9149 27.2678 11.9987 26.6667 12ZM15.1111 27.9467L5.33332 23.4311V10.2756L15.1111 14.7911V27.9467Z" fill="#080808"/>
<path d="M26.6667 9.77777C29.1213 9.77777 31.1111 7.78793 31.1111 5.33333C31.1111 2.87873 29.1213 0.888885 26.6667 0.888885C24.2121 0.888885 22.2222 2.87873 22.2222 5.33333C22.2222 7.78793 24.2121 9.77777 26.6667 9.77777Z" fill="#080808"/>
</g>
<path d="M41.9176 26V8.54545H52.8608V10.8125H44.5511V16.1307H52.2898V18.3892H44.5511V23.733H52.9631V26H41.9176ZM56.174 26V12.9091H58.7223V26H56.174ZM57.4609 10.8892C57.0178 10.8892 56.6371 10.7415 56.3189 10.446C56.0064 10.1449 55.8501 9.78693 55.8501 9.37216C55.8501 8.9517 56.0064 8.59375 56.3189 8.29829C56.6371 7.99716 57.0178 7.84659 57.4609 7.84659C57.9041 7.84659 58.282 7.99716 58.5945 8.29829C58.9126 8.59375 59.0717 8.9517 59.0717 9.37216C59.0717 9.78693 58.9126 10.1449 58.5945 10.446C58.282 10.7415 57.9041 10.8892 57.4609 10.8892ZM67.6392 31.1818C66.5994 31.1818 65.7045 31.0455 64.9545 30.7727C64.2102 30.5 63.6023 30.1392 63.1307 29.6903C62.6591 29.2415 62.3068 28.75 62.0739 28.2159L64.2642 27.3125C64.4176 27.5625 64.6222 27.8267 64.8778 28.1051C65.1392 28.3892 65.4915 28.6307 65.9347 28.8295C66.3835 29.0284 66.9602 29.1278 67.6648 29.1278C68.6307 29.1278 69.429 28.892 70.0597 28.4205C70.6903 27.9545 71.0057 27.2102 71.0057 26.1875V23.6136H70.8438C70.6903 23.892 70.4688 24.2017 70.179 24.5426C69.8949 24.8835 69.5028 25.179 69.0028 25.429C68.5028 25.679 67.8523 25.804 67.0511 25.804C66.017 25.804 65.0852 25.5625 64.2557 25.0795C63.4318 24.5909 62.7784 23.8722 62.2955 22.9233C61.8182 21.9687 61.5795 20.7955 61.5795 19.4034C61.5795 18.0114 61.8153 16.8182 62.2869 15.8239C62.7642 14.8295 63.4176 14.0682 64.2472 13.5398C65.0767 13.0057 66.017 12.7386 67.0682 12.7386C67.8807 12.7386 68.5369 12.875 69.0369 13.1477C69.5369 13.4148 69.9261 13.7273 70.2045 14.0852C70.4886 14.4432 70.7074 14.7585 70.8608 15.0312H71.0483V12.9091H73.5455V26.2898C73.5455 27.4148 73.2841 28.3381 72.7614 29.0597C72.2386 29.7813 71.5313 30.3153 70.6392 30.6619C69.7528 31.0085 68.7528 31.1818 67.6392 31.1818ZM67.6136 23.6903C68.3466 23.6903 68.9659 23.5199 69.4716 23.179C69.983 22.8324 70.3693 22.3381 70.6307 21.696C70.8977 21.0483 71.0312 20.2727 71.0312 19.3693C71.0312 18.4886 70.9006 17.7131 70.6392 17.0426C70.3778 16.3722 69.9943 15.8494 69.4886 15.4744C68.983 15.0937 68.358 14.9034 67.6136 14.9034C66.8466 14.9034 66.2074 15.1023 65.696 15.5C65.1847 15.892 64.7983 16.4261 64.5369 17.1023C64.2813 17.7784 64.1534 18.5341 64.1534 19.3693C64.1534 20.2273 64.2841 20.9801 64.5455 21.6278C64.8068 22.2756 65.1932 22.7812 65.7045 23.1449C66.2216 23.5085 66.858 23.6903 67.6136 23.6903ZM79.5114 18.2273V26H76.9631V8.54545H79.4773V15.0398H79.6392C79.946 14.3352 80.4148 13.7756 81.0455 13.3608C81.6761 12.946 82.5 12.7386 83.517 12.7386C84.4148 12.7386 85.1989 12.9233 85.8693 13.2926C86.5455 13.6619 87.0682 14.2131 87.4375 14.946C87.8125 15.6733 88 16.5824 88 17.6733V26H85.4517V17.9801C85.4517 17.0199 85.2045 16.2756 84.7102 15.7472C84.2159 15.2131 83.5284 14.946 82.6477 14.946C82.0455 14.946 81.5057 15.0739 81.0284 15.3295C80.5568 15.5852 80.1847 15.9602 79.9119 16.4545C79.6449 16.9432 79.5114 17.5341 79.5114 18.2273ZM97.5114 12.9091V14.9545H90.3608V12.9091H97.5114ZM92.2784 9.77273H94.8267V22.1562C94.8267 22.6506 94.9006 23.0227 95.0483 23.2727C95.196 23.517 95.3864 23.6847 95.6193 23.7756C95.858 23.8608 96.1165 23.9034 96.3949 23.9034C96.5994 23.9034 96.7784 23.8892 96.9318 23.8608C97.0852 23.8324 97.2045 23.8097 97.2898 23.7926L97.75 25.8977C97.6023 25.9545 97.392 26.0114 97.1193 26.0682C96.8466 26.1307 96.5057 26.1648 96.0966 26.1705C95.4261 26.1818 94.8011 26.0625 94.2216 25.8125C93.642 25.5625 93.1733 25.1761 92.8153 24.6534C92.4574 24.1307 92.2784 23.4744 92.2784 22.6847V9.77273ZM106.886 26V8.54545H113.278C114.517 8.54545 115.543 8.75 116.355 9.15909C117.168 9.5625 117.776 10.1108 118.179 10.804C118.582 11.4915 118.784 12.267 118.784 13.1307C118.784 13.858 118.651 14.4716 118.384 14.9716C118.116 15.4659 117.759 15.8636 117.31 16.1648C116.866 16.4602 116.378 16.6761 115.844 16.8125V16.983C116.423 17.0114 116.989 17.1989 117.54 17.5455C118.097 17.8864 118.557 18.3722 118.92 19.0028C119.284 19.6335 119.466 20.4006 119.466 21.304C119.466 22.196 119.256 22.9972 118.835 23.7074C118.42 24.4119 117.778 24.9716 116.909 25.3864C116.04 25.7955 114.929 26 113.577 26H106.886ZM109.52 23.7415H113.321C114.582 23.7415 115.486 23.4972 116.031 23.0085C116.577 22.5199 116.849 21.9091 116.849 21.1761C116.849 20.625 116.71 20.1193 116.432 19.6591C116.153 19.1989 115.756 18.8324 115.239 18.5597C114.727 18.2869 114.119 18.1506 113.415 18.1506H109.52V23.7415ZM109.52 16.0966H113.048C113.639 16.0966 114.17 15.983 114.642 15.7557C115.119 15.5284 115.497 15.2102 115.776 14.8011C116.06 14.3864 116.202 13.8977 116.202 13.3352C116.202 12.6136 115.949 12.0085 115.443 11.5199C114.938 11.0312 114.162 10.7869 113.116 10.7869H109.52V16.0966ZM124.933 8.54545V26H122.385V8.54545H124.933ZM133.876 26.2642C132.648 26.2642 131.577 25.983 130.663 25.4205C129.748 24.858 129.038 24.071 128.532 23.0597C128.026 22.0483 127.773 20.8665 127.773 19.5142C127.773 18.1562 128.026 16.9687 128.532 15.9517C129.038 14.9347 129.748 14.1449 130.663 13.5824C131.577 13.0199 132.648 12.7386 133.876 12.7386C135.103 12.7386 136.174 13.0199 137.089 13.5824C138.004 14.1449 138.714 14.9347 139.219 15.9517C139.725 16.9687 139.978 18.1562 139.978 19.5142C139.978 20.8665 139.725 22.0483 139.219 23.0597C138.714 24.071 138.004 24.858 137.089 25.4205C136.174 25.983 135.103 26.2642 133.876 26.2642ZM133.884 24.125C134.68 24.125 135.339 23.9148 135.862 23.4943C136.384 23.0739 136.771 22.5142 137.021 21.8153C137.276 21.1165 137.404 20.3466 137.404 19.5057C137.404 18.6705 137.276 17.9034 137.021 17.2045C136.771 16.5 136.384 15.9347 135.862 15.5085C135.339 15.0824 134.68 14.8693 133.884 14.8693C133.083 14.8693 132.418 15.0824 131.89 15.5085C131.367 15.9347 130.978 16.5 130.722 17.2045C130.472 17.9034 130.347 18.6705 130.347 19.5057C130.347 20.3466 130.472 21.1165 130.722 21.8153C130.978 22.5142 131.367 23.0739 131.89 23.4943C132.418 23.9148 133.083 24.125 133.884 24.125ZM148.337 26.2642C147.07 26.2642 145.979 25.9773 145.064 25.4034C144.155 24.8239 143.456 24.0256 142.967 23.0085C142.479 21.9915 142.234 20.8267 142.234 19.5142C142.234 18.1847 142.484 17.0114 142.984 15.9943C143.484 14.9716 144.189 14.1733 145.098 13.5994C146.007 13.0256 147.078 12.7386 148.311 12.7386C149.305 12.7386 150.192 12.9233 150.97 13.2926C151.749 13.6562 152.376 14.1676 152.854 14.8267C153.337 15.4858 153.624 16.2557 153.714 17.1364H151.234C151.098 16.5227 150.786 15.9943 150.297 15.5511C149.814 15.108 149.166 14.8864 148.354 14.8864C147.643 14.8864 147.021 15.0739 146.487 15.4489C145.959 15.8182 145.547 16.3466 145.251 17.0341C144.956 17.7159 144.808 18.5227 144.808 19.4545C144.808 20.4091 144.953 21.233 145.243 21.9261C145.533 22.6193 145.942 23.1562 146.47 23.5369C147.004 23.9176 147.632 24.108 148.354 24.108C148.837 24.108 149.274 24.0199 149.666 23.8438C150.064 23.6619 150.396 23.4034 150.663 23.0682C150.936 22.733 151.126 22.3295 151.234 21.858H153.714C153.624 22.7045 153.348 23.4602 152.888 24.125C152.428 24.7898 151.811 25.3125 151.038 25.6932C150.271 26.0739 149.371 26.2642 148.337 26.2642ZM158.783 21.5597L158.766 18.4489H159.21L164.425 12.9091H167.477L161.528 19.2159H161.127L158.783 21.5597ZM156.44 26V8.54545H158.988V26H156.44ZM164.707 26L160.019 19.7784L161.775 17.9972L167.835 26H164.707Z" fill="#080808"/>
<defs>
<clipPath id="clip0_25_43">
<rect width="32" height="32" fill="white"/>
</clipPath>
</defs>
</svg>
